# xmcd
#
# Track frame offsets:
#	150
#	13272
#	32330
#	45485
#	62297
#	79047
#	91175
#	113435
#	131647
#	144260
#	154552
#	169347
#	181952
#	199865
#
# Disc length: 2858 seconds
#
# Revision: 1
# Processed by: cddbd v1.5.1PL2 Copyright (c) Steve Scherf et al.
# Submitted via: audiograbber 1.83.01
#
DISCID=a30b280e
DTITLE=Old Time Texas - The Ballad Of Jericho
DYEAR=1900
DGENRE=
TTITLE0=Joshua Fit The Battle of Jericho
TTITLE1=Crazy
TTITLE2=Honky Tonk Blues
TTITLE3=San Antonio Rose
TTITLE4=Sweet Dreams
TTITLE5=Hey Good Looking
TTITLE6=Just A Closer Walk With Thee
TTITLE7=Jealous Heart
TTITLE8=Walking After Mitnight
TTITLE9=Jimmy Brown The Newsboy
TTITLE10=Faded Love
TTITLE11=When My Blue Moon Turns To Gold Again
TTITLE12=Wild Side of Life
TTITLE13=Only to Him
EXTD=
EXTT0=
EXTT1=
EXTT2=
EXTT3=
EXTT4=
EXTT5=
EXTT6=
EXTT7=
EXTT8=
EXTT9=
EXTT10=
EXTT11=
EXTT12=
EXTT13=
PLAYORDER=
